<?xml version="1.0"?><svg xmlns="http://www.w3.org/2000/svg" xmlns:xlink="http://www.w3.org/1999/xlink" viewBox="0 0 191.47 129.83"><defs><style>.cls-1{fill:none;}.cls-2{clip-path:url(#clip-path);}.cls-3{fill:url(#Dégradé_sans_nom);}.cls-4{clip-path:url(#clip-path-2);}.cls-5{fill:#fff;}.cls-6{clip-path:url(#clip-path-6);}.cls-7{fill:url(#Dégradé_sans_nom_2);}</style><clipPath id="clip-path" transform="translate(-5.55 -1.91)"><path class="cls-1" d="M9.69,33.45a4.32,4.32,0,0,0-3.93,4.68l7.79,89.47a4.33,4.33,0,0,0,4.69,3.93l160.08-14.18a4.32,4.32,0,0,0,3.92-4.68l-3-34.46L127.58,60A3.72,3.72,0,0,1,125,55.45l11.24-33.21Z"/></clipPath><radialGradient id="Dégradé_sans_nom" cx="-165.52" cy="706.47" r="1" gradientTransform="matrix(52.71, 0, 0, -52.71, 8855.29, 37266.58)" gradientUnits="userSpaceOnUse"><stop offset="0" stop-color="#666473"/><stop offset="1" stop-color="#4a4656"/></radialGradient><clipPath id="clip-path-2" transform="translate(-5.55 -1.91)"><rect class="cls-1" width="202.99" height="133.45"/></clipPath><clipPath id="clip-path-6" transform="translate(-5.55 -1.91)"><path class="cls-1" d="M141.54,4.35,128,54.17a2.85,2.85,0,0,0-.11.65v.39a3.46,3.46,0,0,0,2.57,3.08l48.93,13.3a3.39,3.39,0,0,0,4.2-2.31L197,19.87V17.42a3.51,3.51,0,0,0-2.35-2.09L145.74,2a3.41,3.41,0,0,0-4.2,2.31"/></clipPath><radialGradient id="Dégradé_sans_nom_2" cx="-165.02" cy="705.94" r="1" gradientTransform="matrix(69.64, 0, 0, -70.65, 11620.76, 49927.81)" gradientUnits="userSpaceOnUse"><stop offset="0" stop-color="#62bb46"/><stop offset="1" stop-color="#bcd631"/></radialGradient></defs><title>Fichier 1</title><g id="Calque_2" data-name="Calque 2"><g id="Calque_1-2" data-name="Calque 1"><g class="cls-2"><rect class="cls-3" y="20.33" width="176.9" height="109.5"/></g><g class="cls-4"><path class="cls-5" d="M32.62,70.61l.11-.15,1.62-.38.13.08.65,7.38c.18,2.06,1.4,2.74,2.74,2.62a12.06,12.06,0,0,0,2.34-.87L39.39,70l.1-.15,1.63-.38.12.09.83,9.32.77,2-.11.15-1.41.34-.15-.08-.83-1.63c-.21.89-1,2-3.09,2.24s-3.72-1.12-4-3.82Z" transform="translate(-5.55 -1.91)"/></g><path class="cls-5" d="M44.88,69.53l.11-.15L46.61,69l.13.09,1,11.5-.11.13L46,80.86l-.13-.11Zm-.41-3-.17-1.95.11-.13,1.94-.17.13.1.18,2-.11.13-1.95.17Z" transform="translate(-5.55 -1.91)"/><g class="cls-4"><path class="cls-5" d="M50.59,71.22l-.78-2.15.11-.15,1.41-.34.15.08.8,1.58c.07-.31.61-2,3.12-2.19a3,3,0,0,1,3.07,1.48,3.68,3.68,0,0,1,3.27-2c2.07-.18,3.72,1.07,3.95,3.74l.69,7.71-.11.12-1.67.15-.1-.11-.65-7.32c-.18-2-1.39-2.63-2.73-2.51a14,14,0,0,0-2.4.73,5.55,5.55,0,0,1,.41,1.63l.7,7.88-.11.13-1.64.15L58,79.68l-.65-7.32c-.18-2-1.18-2.67-2.52-2.55a16.56,16.56,0,0,0-2.35.75l.84,9.54-.1.13-1.65.14-.13-.11Z" transform="translate(-5.55 -1.91)"/><path class="cls-5" d="M74.13,77a2.46,2.46,0,0,0,2.24-3l-.29-3.27c-.18-2-1.41-2.64-2.75-2.52a14.34,14.34,0,0,0-2.35.75l.51,5.75A2.18,2.18,0,0,0,74.13,77m-2.25,2.16.39,4.39-.1.15L70.54,84,70.42,84,69.14,69.58l-.78-2.16.11-.15,1.41-.34L70,67l.8,1.58c.07-.31.61-2,3.12-2.19,2.07-.18,3.74,1.06,4,3.74l.35,4c.24,2.63-1.47,4.23-3.93,4.44A4.32,4.32,0,0,1,71.69,78Z" transform="translate(-5.55 -1.91)"/><path class="cls-5" d="M85,70.73c1.29-.11,2.4-.64,2.27-2.09-.07-.83-.78-1.64-2.36-1.5s-2.43,1.14-2.27,3l0,.42a6.67,6.67,0,0,0,2.32.22M80.73,70c-.23-2.63,1.44-4.32,4.09-4.56,3-.26,4.28,1.47,4.42,3.12.21,2.32-1.34,3.59-3.57,3.79s-3-.9-3-1l.19.85.11,1.23a2.48,2.48,0,0,0,2.88,2.53,2.58,2.58,0,0,0,2.45-1.47l.16-.06,1.45.37.08.13c-.43,1.56-1.9,2.54-3.9,2.72-2.89.25-4.72-1-5-3.66Z" transform="translate(-5.55 -1.91)"/><path class="cls-5" d="M92.27,67.53l-.78-2.15.11-.16L93,64.89l.15.08.8,1.58A3.11,3.11,0,0,1,97,64.37l.13.13-.17,2-.16.13a2.86,2.86,0,0,0-1.24-.1,5.18,5.18,0,0,0-1.46.34L95,76.41l-.1.12-1.65.15-.13-.11Z" transform="translate(-5.55 -1.91)"/><path class="cls-5" d="M46.47,98.28a2.47,2.47,0,0,0,2.39-3L48.57,92a2.64,2.64,0,1,0-5.26.46l.29,3.27c.16,1.81,1.18,2.68,2.87,2.54m-5.07-6C41.16,89.63,43,88,45.55,87.8s4.63,1,4.86,3.66l.36,4c.23,2.63-1.56,4.24-4.15,4.47s-4.63-1-4.86-3.67Z" transform="translate(-5.55 -1.91)"/><path class="cls-5" d="M53.54,89.84l-.79-2.16.11-.15,1.41-.34.15.09.81,1.58a3.08,3.08,0,0,1,3-2.18l.13.13-.17,2-.16.13a2.7,2.7,0,0,0-1.24-.1,5.18,5.18,0,0,0-1.46.34l.85,9.54-.11.12L54.46,99l-.12-.11Z" transform="translate(-5.55 -1.91)"/><path class="cls-5" d="M60.79,89.2,60,87l.11-.15,1.41-.34.15.08.8,1.59c.07-.31.61-2,3.12-2.2,2.07-.18,3.86,1.06,4.09,3.74l.69,7.7-.11.13-1.65.14-.12-.1-.65-7.33A2.48,2.48,0,0,0,65,87.79a14.54,14.54,0,0,0-2.34.75l.84,9.53-.11.13-1.64.15-.13-.11Z" transform="translate(-5.55 -1.91)"/><path class="cls-5" d="M77.85,95.5a2.47,2.47,0,0,0,2.38-3l-.29-3.26a2.44,2.44,0,0,0-2.87-2.51c-1.69.14-2.55,1.17-2.39,3L75,93c.16,1.81,1.19,2.69,2.88,2.54m-5.08-6c-.23-2.63,1.57-4.24,4.15-4.47s4.64,1,4.87,3.67l.35,4c.24,2.63-1.56,4.23-4.15,4.46s-4.63-1-4.86-3.67Z" transform="translate(-5.55 -1.91)"/><path class="cls-5" d="M84.53,84.89l.1-.15,1.63-.38.12.09L87,91.82c.19,2.07,1.41,2.74,2.75,2.62a12.17,12.17,0,0,0,2.33-.87l-.82-9.27.11-.16L93,83.76l.12.09L94,93.17l.77,2-.11.16-1.41.33-.15-.08L92.24,94c-.2.9-1,2.05-3.09,2.24s-3.72-1.11-4-3.81Z" transform="translate(-5.55 -1.91)"/><path class="cls-5" d="M100.72,93.47a8.81,8.81,0,0,0,2.71-.93l-.35-4a2,2,0,0,1-2,1.35l-.56,0c-.82.08-2,.49-1.89,1.92a1.72,1.72,0,0,0,2.06,1.57m-3.13-4.08a5.74,5.74,0,0,1,3.58-1.21l.82-.08a2,2,0,0,0,1-.32l-.1-1.11c-.16-1.8-1.3-2.13-2.62-2a3.71,3.71,0,0,0-2.26.91h-.19l-.9-1.1,0-.19a5.31,5.31,0,0,1,3.2-1.3c2.39-.22,4.35.58,4.58,3.19l.54,6,.77,2-.11.15-1.41.34-.15-.08L103.56,93a3.09,3.09,0,0,1-3,2.23,3.28,3.28,0,0,1-3.87-3.14,3.18,3.18,0,0,1,.9-2.66" transform="translate(-5.55 -1.91)"/></g><path class="cls-5" d="M107.92,82.82l.1-.15,1.62-.38.13.09,1,11.5-.11.13-1.64.14-.13-.1Zm-.42-3-.17-2,.11-.12,2-.18.13.11.17,2-.11.13-2,.17Z" transform="translate(-5.55 -1.91)"/><g class="cls-4"><path class="cls-5" d="M113,77.41l.1-.15,1.63-.38.12.08L116,90.82a1,1,0,0,0,1.15,1h.09l.11.11-.13,1.51-.11.12-.18,0a2.4,2.4,0,0,1-2.8-2.43Z" transform="translate(-5.55 -1.91)"/><path class="cls-5" d="M118.78,76.9l.1-.16,1.63-.38.12.09,1.13,13.86a1,1,0,0,0,1.15,1H123l.11.11-.13,1.5-.11.13-.18,0a2.41,2.41,0,0,1-2.8-2.43Z" transform="translate(-5.55 -1.91)"/><path class="cls-5" d="M129.14,85.7c1.29-.11,2.4-.64,2.27-2.09-.07-.83-.78-1.64-2.35-1.5s-2.43,1.14-2.27,3l0,.42a6.67,6.67,0,0,0,2.32.22M124.88,85c-.23-2.62,1.44-4.31,4.1-4.55,3-.26,4.27,1.47,4.41,3.12.21,2.32-1.33,3.59-3.56,3.79s-3-.9-3.06-1.06l.2.86.11,1.23A2.48,2.48,0,0,0,130,90.88a2.58,2.58,0,0,0,2.45-1.47l.16-.06,1.45.37.09.13c-.43,1.55-1.91,2.54-3.9,2.72-2.89.25-4.73-1-5-3.66Z" transform="translate(-5.55 -1.91)"/><path class="cls-5" d="M30.93,113.49c.25,2.8-1.4,4.24-3.8,4.46l-3.4.3-1.07-12.1,3.4-.3a3.84,3.84,0,0,1,4.52,3.74Zm-5-9.52-5.26.47-.11.13,1.38,15.61.13.11,5.26-.47c3.69-.32,6-2.52,5.67-6.3l-.38-4.27c-.34-3.8-3-5.6-6.69-5.28M19.46,77.48l-.39-4.41a3.84,3.84,0,0,1,3.79-4.48,3.84,3.84,0,0,1,4.52,3.74l.39,4.42C28,79.54,26.37,81,24,81.2s-4.27-.92-4.52-3.72m19.71,19.6-1.57-.46-.16.07a4.07,4.07,0,0,1-3.78,2.53c-2.4.21-4.25-.92-4.49-3.72l-.4-4.41a3.82,3.82,0,0,1,3.77-4.48,4,4,0,0,1,3.88,1.79l.17,0,1.51-.8.06-.14a5.54,5.54,0,0,0-5.59-2.76l.06,0-4.89.51-1.88.16A1.36,1.36,0,0,1,24.34,84c0-.49,0-.81.13-.91,3.47-.43,5.67-2.59,5.34-6.27L29.39,72c-.34-3.81-3-5.61-6.69-5.28s-6,2.57-5.66,6.37l.42,4.79c.32,3.67,2.85,5.43,6.36,5.24a2.14,2.14,0,0,0-.93,2,2.68,2.68,0,0,0,3.16,2.29l1.47-.13a6,6,0,0,0-.78,3.78l.42,4.79c.34,3.78,3,5.54,6.66,5.21,2.89-.26,4.86-1.59,5.44-3.89Z" transform="translate(-5.55 -1.91)"/><path class="cls-5" d="M38.4,104.9l0-.14,1.19-2.52.16-.11,2.54-.22.12.08-2.62,3.26-.14,0ZM40.1,112c1.29-.12,2.4-.64,2.27-2.1-.07-.82-.78-1.63-2.35-1.49s-2.43,1.13-2.27,2.94l0,.43a6.67,6.67,0,0,0,2.32.22m-4.26-.74c-.23-2.63,1.44-4.31,4.1-4.55,3-.27,4.27,1.47,4.41,3.11.21,2.33-1.33,3.6-3.56,3.8s-3-.9-3.06-1.06l.2.86.11,1.22a2.48,2.48,0,0,0,2.87,2.54,2.61,2.61,0,0,0,2.45-1.47l.16-.06L45,116l.09.14c-.43,1.55-1.91,2.54-3.9,2.71-2.89.26-4.73-1-5-3.65Z" transform="translate(-5.55 -1.91)"/></g><polygon class="cls-5" points="40.12 104.86 40.22 104.7 42.01 104.31 42.14 104.39 45.65 112.58 46.09 113.8 46.31 112.52 48.26 104.11 48.39 103.98 50.25 103.58 50.33 103.69 47.07 115.74 46.91 115.85 45.45 115.65 45.27 115.53 40.12 104.86"/><g class="cls-4"><path class="cls-5" d="M62.15,110.06c1.29-.11,2.4-.64,2.27-2.09-.07-.82-.78-1.64-2.35-1.5s-2.44,1.14-2.28,3l0,.42a6.4,6.4,0,0,0,2.32.22m-4.26-.73c-.23-2.63,1.44-4.32,4.09-4.55,3-.27,4.28,1.46,4.42,3.11.21,2.32-1.33,3.6-3.56,3.79s-3-.89-3.06-1.05l.2.86.11,1.22A2.48,2.48,0,0,0,63,115.25a2.61,2.61,0,0,0,2.45-1.47l.16-.07,1.45.37.09.14c-.43,1.55-1.91,2.53-3.9,2.71-2.89.25-4.73-1-5-3.66Z" transform="translate(-5.55 -1.91)"/><path class="cls-5" d="M68.21,94.37l.11-.15,1.62-.38.13.08,1.7,19.24a1,1,0,0,0,1.15,1H73l.11.11-.13,1.5-.11.13-.18,0a2.42,2.42,0,0,1-2.8-2.43Z" transform="translate(-5.55 -1.91)"/><path class="cls-5" d="M80,113.74a2.46,2.46,0,0,0,2.39-3l-.29-3.27A2.44,2.44,0,0,0,79.18,105c-1.69.15-2.54,1.17-2.38,3l.29,3.26c.16,1.81,1.18,2.69,2.87,2.54m-5.08-6c-.23-2.63,1.57-4.23,4.15-4.46s4.64,1,4.87,3.66l.36,4c.23,2.63-1.57,4.23-4.15,4.46s-4.63-1-4.87-3.66Z" transform="translate(-5.55 -1.91)"/><path class="cls-5" d="M92,112.67c1.43-.12,2.4-1.18,2.24-3L94,106.42c-.18-2-1.41-2.65-2.75-2.52a14.65,14.65,0,0,0-2.35.75l.51,5.75A2.17,2.17,0,0,0,92,112.67m-2.25,2.17.93,10.43-.11.15L89,125.8l-.13-.08L87,105.31l-.78-2.16.11-.15,1.41-.34.15.08.8,1.59c.07-.32.61-2,3.12-2.2,2.07-.18,3.74,1.07,4,3.75l.36,4c.23,2.63-1.48,4.22-3.94,4.44a4.47,4.47,0,0,1-2.66-.59Z" transform="translate(-5.55 -1.91)"/><path class="cls-5" d="M103.94,111.62a2.46,2.46,0,0,0,2.24-3l-.29-3.27c-.18-2-1.42-2.64-2.75-2.52a14.34,14.34,0,0,0-2.35.75l.51,5.75a2.18,2.18,0,0,0,2.64,2.28m-2.25,2.16.92,10.43-.1.15-1.62.38-.13-.08L99,104.25l-.78-2.16.11-.15,1.41-.34.15.09.8,1.58c.07-.31.61-2,3.12-2.19,2.07-.19,3.74,1.06,4,3.74l.35,4c.24,2.63-1.47,4.22-3.93,4.44a4.39,4.39,0,0,1-2.66-.59Z" transform="translate(-5.55 -1.91)"/><path class="cls-5" d="M114.8,105.4c1.29-.11,2.4-.64,2.27-2.09-.07-.82-.78-1.64-2.36-1.5s-2.43,1.14-2.27,3l0,.42a6.67,6.67,0,0,0,2.32.22m-4.26-.73c-.23-2.63,1.44-4.32,4.09-4.56,3-.26,4.27,1.47,4.42,3.12.21,2.32-1.34,3.59-3.57,3.79s-3-.9-3-1l.19.86.11,1.21a2.5,2.5,0,0,0,2.88,2.55,2.6,2.6,0,0,0,2.45-1.48l.16-.06,1.45.37.08.13c-.43,1.56-1.9,2.54-3.9,2.72-2.89.25-4.72-1-5-3.66Z" transform="translate(-5.55 -1.91)"/><path class="cls-5" d="M122.08,102.2l-.78-2.15.11-.16,1.41-.33.15.08.8,1.58c.07-.31.61-2,3.12-2.19a3,3,0,0,1,3.07,1.48,3.68,3.68,0,0,1,3.27-2c2.07-.19,3.72,1.06,4,3.74l.68,7.7-.1.13-1.67.15-.1-.11-.65-7.33c-.18-2-1.39-2.62-2.73-2.5a14,14,0,0,0-2.4.73,5.56,5.56,0,0,1,.4,1.63l.7,7.88-.1.13-1.65.15-.13-.11-.64-7.33c-.18-2-1.19-2.66-2.53-2.54a15.6,15.6,0,0,0-2.34.75l.84,9.54-.11.12-1.64.15-.13-.11Z" transform="translate(-5.55 -1.91)"/><path class="cls-5" d="M144.54,102.77c1.3-.12,2.41-.64,2.28-2.1-.07-.82-.78-1.63-2.36-1.49s-2.43,1.14-2.27,2.94l0,.43a6.63,6.63,0,0,0,2.31.22m-4.25-.74c-.23-2.63,1.44-4.32,4.09-4.55,3-.27,4.28,1.47,4.42,3.11.21,2.33-1.34,3.6-3.57,3.8s-3-.9-3-1.06l.19.86.11,1.22a2.49,2.49,0,0,0,2.88,2.54,2.61,2.61,0,0,0,2.45-1.47l.16-.06,1.45.36.08.14c-.43,1.55-1.9,2.54-3.9,2.71-2.89.26-4.72-1-5-3.65Z" transform="translate(-5.55 -1.91)"/><path class="cls-5" d="M151.83,99.57l-.78-2.16.11-.15,1.41-.34.15.08.8,1.59c.07-.32.61-2,3.12-2.19,2.07-.19,3.86,1,4.09,3.73l.69,7.7-.11.13-1.64.14-.13-.1-.65-7.33A2.48,2.48,0,0,0,156,98.15a15.38,15.38,0,0,0-2.35.76l.84,9.53-.1.13-1.65.14-.13-.1Z" transform="translate(-5.55 -1.91)"/><path class="cls-5" d="M164.33,97.7l-1.27.11-.12-.1-.13-1.46.1-.13,1.36-.12V93.61l.1-.15,1.32-.31.13.09.23,2.6L183,94.35l.13.1-.31,1.5-.16.13-16.41,1.46.5,5.65c.14,1.6,1,2.73,2.32,2.61a3.09,3.09,0,0,0,1.67-.88h.16l.85,1.28,0,.16a4.72,4.72,0,0,1-2.67,1.19c-2.13.19-3.91-1.12-4.17-4.06Z" transform="translate(-5.55 -1.91)"/></g><g class="cls-6"><rect class="cls-7" x="122.34" width="69.13" height="70.18"/></g><g class="cls-4"><path class="cls-5" d="M180.5,32.54h-.09a.43.43,0,0,1-.34-.33,33.13,33.13,0,0,0-2.52-6.54A31.34,31.34,0,0,0,174,19.81a.43.43,0,0,1-.05-.47.44.44,0,0,1,.4-.26,43.23,43.23,0,0,1,11.94,2.06.44.44,0,0,1,.28.56,42.13,42.13,0,0,1-5.75,10.67.43.43,0,0,1-.35.17" transform="translate(-5.55 -1.91)"/><path class="cls-5" d="M174.38,18.64a.91.91,0,0,0-.81.51.89.89,0,0,0,.12.94,30.84,30.84,0,0,1,3.46,5.77,32.6,32.6,0,0,1,2.48,6.44.91.91,0,0,0,.68.67l.19,0a.88.88,0,0,0,.7-.34A42.25,42.25,0,0,0,187,21.84a.9.9,0,0,0-.55-1.13,43.55,43.55,0,0,0-12.09-2.07Z" transform="translate(-5.55 -1.91)"/></g></g></g></svg>